<svg xmlns="http://www.w3.org/2000/svg" xmlns:xlink="http://www.w3.org/1999/xlink" x="0px" y="0px" fill="#ffffff" stroke="#ffffff" color="#ffffff" enable-background="new 0 0 100 100" version="1.1" viewBox="0 0 100 100" xml:space="preserve">
    <path d="M91.052,77.177c-0.097,0.29-0.225,0.573-0.284,0.87c-0.258,1.302-0.982,2.172-2.147,2.853  c-5.151,3.01-10.583,5.332-16.272,7.129c-4.073,1.287-8.06,2.844-12.093,4.259c-2.713,0.952-5.464,1.758-8.367,1.875  c-0.126,0.005-0.311-0.008-0.368,0.065c-1.028,1.322-2.361,0.61-3.412,0.291c-4.633-1.407-9.227-2.946-13.807-4.52  c-3.467-1.191-6.893-2.503-10.334-3.768c-0.77-0.283-1.188-0.767-1.561-1.6c-2.518-5.618-3.356-11.712-5.089-17.548  c-1.307-4.402-2.091-8.958-3.174-13.429c-0.791-3.262-1.765-6.479-2.523-9.748c-0.945-4.077-1.769-8.183-2.595-12.286  c-0.126-0.625-0.086-1.326,0.055-1.953c0.518-2.313,1.664-4.162,3.966-5.137c1.527-0.646,3.017-1.38,4.625-2.121  c-0.635-0.972-0.637-2.096-0.206-3.258c0.223-0.6,0.491-0.906,1.229-0.932c0.701-0.025,1.392-0.395,2.084-0.624  c2.899-0.957,5.792-1.935,8.698-2.871c2.424-0.78,4.828-1.675,7.305-2.231c6.098-1.369,11.807-3.835,17.64-5.962  c1.247-0.455,2.588-0.648,3.876-0.996C58.77,5.408,59.218,5.182,59.679,5c0.257,0,0.513,0,0.77,0  c2.254,1.309,4.087,3.046,5.412,5.304c0.144,0.246,0.293,0.512,0.505,0.691c1.735,1.464,3.459,2.942,5.237,4.352  c2.126,1.687,4.308,3.304,6.447,4.973c0.225,0.176,0.408,0.484,0.483,0.764c0.869,3.267,1.766,6.528,2.552,9.815  c1.159,4.844,2.25,9.705,3.343,14.565c1.065,4.736,2.108,9.477,3.141,14.22c0.754,3.465,1.447,6.943,2.244,10.397  c0.102,0.444,0.903,0.751,0.957,1.176c0.059,0.456-0.618,1.007-0.558,1.461c0.158,1.182,0.544,2.333,0.839,3.496  C91.052,76.536,91.052,76.857,91.052,77.177z M64.372,49.207c-0.275-0.693-0.551-1.385-0.918-2.309  c-0.69,1.103-1.119,2.058-1.794,2.785c-0.566,0.609-0.464,1.016-0.117,1.608c0.53-0.643,0.951-1.305,1.522-1.789  c0.303-0.257,0.867-0.207,1.312-0.295c-0.053,0.389,0.006,0.844-0.18,1.154c-0.507,0.849-1.135,1.625-1.675,2.456  c-0.15,0.231-0.27,0.581-0.21,0.829c0.281,1.17,0.63,2.323,0.968,3.53c0.192-0.08,0.305-0.124,0.415-0.174  c6.507-2.973,9.219-11.617,6.453-17.677c-1.025-2.245-2.634-4.083-4.962-4.798c-2.207-0.677-4.6-0.739-6.926-0.262  c-7.967,1.634-11.53,6.956-11.288,14.63c0.027,0.843-0.007,1.876,1.342,1.819c0.066-0.003,0.136,0.118,0.279,0.249  c-0.277,0.298-0.548,0.588-0.81,0.869c1.985,5.397,9.958,8.261,14.564,5.635c-0.638-1.512-1.279-3.03-1.915-4.537  c-0.413,0.066-0.725,0.153-1.039,0.161c-2.796,0.077-3.873-0.676-4.741-3.382c-0.791-2.467-1.549-4.944-2.285-7.428  c-0.103-0.348,0.002-0.758,0.011-1.139c0.41,0.057,0.833,0.071,1.226,0.186c0.228,0.067,0.405,0.301,0.611,0.451  c0.8,0.581,1.593,1.173,2.409,1.731c0.515,0.352,1.063,0.546,1.565-0.051c0.192-0.228,0.451-0.429,0.563-0.691  c0.687-1.618,1.333-3.254,2.016-4.874c0.097-0.229,0.328-0.574,0.483-0.567c0.276,0.012,0.639,0.188,0.791,0.413  c0.245,0.362,0.369,0.814,0.506,1.239c1.014,3.133,2.028,6.265,3.013,9.407c0.132,0.42,0.1,0.891,0.154,1.441  C65.139,49.563,64.754,49.386,64.372,49.207z M22.648,76.839c0.23,1.08,0.386,1.853,0.561,2.622c0.27,1.181,0.735,2.354,0.771,3.541  c0.027,0.894,0.401,1.482,1.012,1.754c1.598,0.712,3.257,1.299,4.924,1.837c1.965,0.635,3.985,1.101,5.94,1.762  c1.571,0.531,3.041,1.381,4.627,1.847c3.189,0.937,6.232,2.507,9.782,1.878c3.266-0.578,6.551-1.029,9.652-2.252  c9.413-3.712,18.816-7.45,28.206-11.221c0.365-0.146,0.815-0.754,0.78-1.103c-0.147-1.466-0.463-2.915-0.729-4.441  c-0.39,0.121-0.57,0.173-0.747,0.232c-4.025,1.344-8.03,2.753-12.08,4.02c-6.905,2.161-13.806,4.349-20.775,6.286  c-2.702,0.751-5.582,0.876-8.388,1.235c-0.653,0.084-1.321-0.06-1.796-0.89c0.377-0.079,0.632-0.141,0.89-0.185  c3.008-0.513,6.103-0.731,9.007-1.594c7.057-2.098,14.027-4.485,21.027-6.775c4.082-1.335,8.152-2.706,12.241-4.065  c-2.532-10.391-5.048-20.713-7.535-30.918c-2.057,0.674-4.111,1.364-6.178,2.015c-0.549,0.173-0.651,0.433-0.689,1.018  c-0.116,1.775-0.188,3.593-0.641,5.298c-1.899,7.147-8.245,11.914-15.6,11.068c-3.882-0.447-6.905-2.534-9.384-5.457  c-0.545-0.642-0.853-1.794-1.481-1.974c-0.72-0.206-1.661,0.479-2.531,0.655c-3.102,0.628-6.027,2.198-9.404,1.307  c-3.45-0.91-7.005-1.419-10.469-2.281c-2.464-0.613-4.855-1.521-7.333-2.315c0.012,0.138,0.01,0.259,0.035,0.375  c0.788,3.75,1.504,7.517,2.387,11.245c1.03,4.349,2.218,8.66,3.308,12.995c0.153,0.609,0.465,0.882,1.043,1.083  c1.657,0.577,3.318,1.159,4.919,1.871c4.794,2.13,9.649,4.013,14.932,4.552c1.03,0.105,2.026,0.54,3.038,0.823  c-0.017,0.088-0.035,0.177-0.052,0.265c-1.412,0.45-2.862,0.488-4.339,0.405c-3.894-0.22-7.497-1.491-11.028-3.015  C28.001,79.244,25.472,78.094,22.648,76.839z M63.589,11.153C62.729,9.969,62,8.915,61.207,7.912  c-0.165-0.209-0.612-0.39-0.848-0.318c-3.418,1.045-6.848,2.06-10.221,3.24c-2.285,0.799-4.425,2.039-6.734,2.738  c-4.361,1.321-8.797,2.394-13.201,3.572c-3.171,0.848-6.395,1.539-9.337,3.072c-0.251,0.131-0.607,0.537-0.554,0.694  c0.407,1.216,0.903,2.402,1.405,3.683c0.629-0.36,1-0.573,1.409-0.808c-0.637-0.515-1.201-0.97-1.75-1.414  c0.415-0.971,1.026-0.62,1.551-0.361c3.956,1.956,6.777,5.075,8.968,8.828c0.128,0.219,0.268,0.466,0.28,0.706  c0.009,0.19-0.159,0.553-0.265,0.56c-1.234,0.075-2.51,0.309-3.699,0.091c-2.853-0.523-5.669-1.252-8.493-1.925  c-1.206-0.287-2.392-0.662-3.597-0.957c-0.67-0.164-1.518,0.153-1.888-0.785c0.576-1.507,2.269-1.495,3.38-2.311  c-0.515-0.666-1.099-0.546-1.667-0.28c-1.245,0.581-2.487,1.17-3.703,1.808c-0.239,0.125-0.416,0.463-0.518,0.741  c-0.46,1.254-0.307,2.513,0.03,3.769c1.382,5.154,2.753,10.312,4.157,15.46c0.072,0.266,0.38,0.562,0.646,0.663  c1.04,0.392,2.091,0.779,3.168,1.045c4.6,1.134,9.229,2.151,13.807,3.364c1.831,0.485,3.519,0.867,5.38,0.093  c1.341-0.558,2.821-0.782,4.24-1.152c0.85-0.222,1.702-0.439,2.65-0.684c-0.685-1.968-0.552-3.87-0.225-5.777  c0.944-5.5,3.915-9.36,9.193-11.338c3.567-1.336,7.204-1.211,10.856-0.432c2.034,0.434,3.829,1.301,4.972,3.13  c0.869,1.39,1.649,2.836,2.473,4.263c2.11-0.588,4.368-1.217,6.695-1.864c-0.044-0.257-0.078-0.538-0.14-0.812  c-0.636-2.805-1.274-5.609-1.918-8.412c-0.672-2.927-1.34-5.854-2.046-8.773c-0.081-0.336-0.332-0.696-0.609-0.909  c-0.988-0.758-2.038-1.435-3.035-2.183c-2.502-1.879-4.978-3.792-7.494-5.653c-0.243-0.18-0.729-0.205-1.035-0.102  c-3.601,1.209-7.183,2.476-10.784,3.687c-2.62,0.881-5.26,1.702-7.892,2.549c-0.044-0.13-0.088-0.261-0.132-0.391  C50.696,15.105,56.794,12.413,63.589,11.153z M60.495,48.549c0.592-0.814,0.925-1.582,1.508-2.009  c1.102-0.808,0.704-1.605,0.2-2.748C61.642,45.471,59.801,46.382,60.495,48.549z M58.577,47.341  c-1.081-0.072-1.977-0.131-3.043-0.202c0.237,0.42,0.376,1.04,0.685,1.141c0.847,0.277,1.765,0.336,2.831,0.51  C58.835,48.132,58.691,47.69,58.577,47.341z M58.236,46.438c0.07-0.051,0.14-0.102,0.21-0.153c-0.309-0.42-0.535-1.056-0.946-1.214  c-0.851-0.327-1.8-0.4-2.735-0.583c0.047,0.533,0.221,1.02,1.017,1.186C56.617,45.849,57.419,46.177,58.236,46.438z M56.692,50.084  c0.814,1.045,2.017,1.164,3.289,1.457C59.499,49.416,57.769,50.518,56.692,50.084z M59.459,44.773  c0.019,0.026,0.038,0.051,0.057,0.077c0.722-0.897,1.445-1.794,2.232-2.772c-0.113-0.356-0.265-0.837-0.468-1.477  C60.622,42.108,60.04,43.44,59.459,44.773z M22.288,24.992c0.62,0.62,0.842,0.561,1.947-0.458  C23.37,23.915,22.965,24.884,22.288,24.992z M72.999,58.581c1.188-0.437,2.242-1.005,3.36-1.187  c1.189-0.194,1.955,0.679,1.595,1.828c-0.441,1.411-1.164,2.739-1.814,4.079c-0.259,0.534-0.652,1.004-1.063,1.623  c2.035,1.154,4.015,2.277,6.163,3.496c-1.289,0.822-2.413,0.629-3.476,0.188c-1.024-0.426-1.981-1.015-3.126-1.616  c0.316,0.951,0.642,1.778,0.852,2.633c0.089,0.365-0.065,0.789-0.108,1.186c-0.417-0.067-0.998,0.014-1.217-0.23  c-0.473-0.528-0.93-1.181-1.094-1.855c-0.496-2.041-0.827-4.121-1.265-6.176c-0.244-1.144-0.33-2.292-0.165-3.439  c0.051-0.354,0.333-0.759,0.631-0.952C72.398,58.076,72.84,58.483,72.999,58.581z M76.573,59.062  c-0.091-0.064-0.182-0.128-0.273-0.192c-2.588,0.933-3.37,2.502-2.097,4.621C75.028,61.949,75.801,60.505,76.573,59.062z   M68.836,69.997c-0.541-1.617-1.14-3.217-1.602-4.856c-0.31-1.101-0.372-2.272-0.66-3.381c-0.091-0.351-0.553-0.605-0.845-0.903  c-0.23,0.297-0.641,0.583-0.659,0.892c-0.063,1.077-0.101,2.178,0.052,3.241c0.358,2.49,1.015,4.883,2.863,6.758  c0.547,0.555,1.241,1.067,1.938,0.689c0.528-0.286,1.029-0.999,1.148-1.6c0.639-3.226-0.312-6.191-1.737-9.043  c-0.081-0.161-0.239-0.335-0.402-0.394c-0.39-0.143-0.932-0.432-1.179-0.28c-0.417,0.255-0.434,0.76-0.21,1.33  c0.581,1.481,1.099,2.995,1.504,4.533c0.244,0.926,0.228,1.921,0.328,2.885C69.195,69.91,69.015,69.953,68.836,69.997z   M52.219,70.123c-1.2-1.23-2.362-0.339-3.583,0.078c-0.277-1.07-0.537-2.072-0.814-3.139c0.883-0.284,1.676-0.516,2.452-0.795  c0.799-0.288,1.64-0.539,2.131-1.587c-0.592-0.158-1.136-0.457-1.647-0.407c-0.907,0.089-1.79,0.405-2.691,0.591  c-0.352,0.073-0.755,0.153-1.079,0.051c-0.949-0.299-1.312-0.054-1.2,0.983c0.39,3.586,1.45,6.998,2.828,10.31  c0.231,0.554,0.753,1.024,1.233,1.419c0.188,0.155,0.761,0.122,0.924-0.049c0.186-0.194,0.229-0.683,0.126-0.968  c-0.531-1.465-1.129-2.905-1.708-4.366C50.313,71.473,51.774,71.542,52.219,70.123z M59.434,66.194  c0.099-0.439,0.183-1.279,0.481-2.034c0.567-1.437,2.159-1.685,2.984-0.397c1.271,1.982,2.215,4.121,1.861,6.592  c-0.127,0.889-0.395,1.776-1.288,2.101c-0.945,0.343-1.737-0.168-2.364-0.887C59.862,70.14,59.517,68.411,59.434,66.194z   M61.554,64.837c-0.75,1.627-0.042,4.93,1.235,5.959C63.316,68.609,62.47,66.776,61.554,64.837z M56.456,72.526  c-0.462-2.251-0.922-4.503-1.357-6.759c-0.132-0.684-0.385-1.4-1.135-1.226c-0.357,0.083-0.826,0.968-0.754,1.41  c0.483,2.956,1.042,5.905,1.722,8.822c0.13,0.556,0.837,1.22,1.405,1.38c1.265,0.357,3.424-1.062,3.879-2.345  c-1.099-0.967-2.156-0.159-3.384,0.139C56.696,73.437,56.551,72.986,56.456,72.526z M46.343,86.666  c-0.442-0.309-0.924-0.166-0.89,0.356c0.086,1.316,0.347,2.612,1.365,3.648C47.274,89.924,46.903,87.057,46.343,86.666z   M36.191,50.837c0.012-0.269,0.059-0.542,0.029-0.806c-0.119-1.047-0.193-2.106-0.408-3.135c-0.804-3.844-1.653-7.678-2.497-11.513  c-0.068-0.308-0.164-0.663-0.372-0.872c-0.217-0.219-0.585-0.288-0.887-0.423c-0.091,0.268-0.248,0.533-0.257,0.804  c-0.01,0.31,0.113,0.624,0.175,0.936c0.759,3.825,1.502,7.654,2.286,11.474c0.271,1.319,0.825,2.528,1.643,3.595  C35.999,50.877,36.095,50.857,36.191,50.837z"/>
</svg>
