<svg xmlns="http://www.w3.org/2000/svg" xmlns:xlink="http://www.w3.org/1999/xlink" version="1.0" x="0px" y="0px" viewBox="0 0 100 100" enable-background="new 0 0 100 100" xml:space="preserve"><path fill-rule="evenodd" fill="#2E7D32" clip-rule="evenodd" d="M50.499,23.477c-0.523,0.043-0.988,0.731-1.021,1.509  c-0.024,0.561,0.413,1.098,0.981,1.202c0.526,0.098,1.103-0.408,1.144-1.002C51.662,24.296,51.103,23.427,50.499,23.477z   M37.225,46.999c-0.903,0-1.026,0.929-1.206,1.362c-0.214,0.514,0.216,0.867,0.704,1.004c0.518,0.146,1.095-0.305,1.084-0.942  C37.801,48.046,37.807,46.998,37.225,46.999z M36.182,54.48c-0.203,0.004-0.47,0-0.6,0.382c-0.08,0.478,0.266,0.5,0.443,0.538  c0.179,0.038,0.774,0.092,0.774-0.389C36.799,54.48,36.348,54.477,36.182,54.48z M26.621,15.861  c-0.285-0.062-0.774,0.123-0.942,0.362c-0.443,0.635-0.678,1.357,0.073,2.174c0.438,0.642,1.53,0.236,1.606-0.397  c0-0.516,0.089-0.998-0.031-1.419C27.242,16.285,26.904,15.92,26.621,15.861z M55.68,31.507c-0.932,0.245-1.06,0.55-1.521,1.15  c-0.17,0.221-0.286,0.505-0.359,0.776c-0.265,0.966-0.295,1.914,0.519,2.662c0.513,0.469,1.096,0.745,1.826,0.431  c0.949-0.407,1.62-1.396,1.579-2.502C57.673,32.707,57.313,31.507,55.68,31.507z M56.461,34.702  c-0.126,0.513-0.756,0.642-1.203,0.435c-0.252-0.117-0.495-0.608-0.463-0.901c0.049-0.443,0.313-0.874,0.546-1.275  c0.067-0.118,0.337-0.117,0.515-0.17c0.161,0.089,0.44,0.156,0.462,0.271C56.417,33.605,56.586,34.195,56.461,34.702z M61.879,36.49  c0.421,0.269,1.174,0.359,1.609,0.165c0.429-0.192,0.717-0.589,0.83-1.114c0.008-1.531-0.379-2.329-1.439-2.945  c-0.273-0.159-0.819-0.195-1.053-0.028C60.405,33.588,60.416,35.562,61.879,36.49z M62.575,33.19  c0.663,0.119,0.945,1.008,0.844,2.024c0.044,0.15-0.247,0.515-0.452,0.585c-0.198,0.069-0.576-0.038-0.713-0.202  C61.72,34.959,61.412,33.462,62.575,33.19z M59.356,38.25c-0.964-0.002-1.595,0.625-1.641,1.628  c-0.041,0.959,0.438,1.681,1.147,1.72c0.989,0.056,1.76-0.706,1.837-1.815C60.76,38.931,60.165,38.252,59.356,38.25z M44.454,67.478  c-0.451-0.662-1.211-0.889-2.061-0.665c-0.635,0.165-0.954,0.624-1.086,1.227c-0.082,0.379-0.218,0.48-0.218,1.419  c0,0.947,0.328,1.452,0.68,2.224c0.239,0.521,0.799,0.876,1.456,0.702c1.512-0.396,2.491-2.25,1.922-3.636  C44.966,68.304,44.724,67.875,44.454,67.478z M44.411,70.153c-0.147,0.807-0.718,1.307-1.655,1.245  c-0.903-0.945-0.794-2.069-0.587-3.2c0.078-0.429,0.799-0.692,1.154-0.466C44.218,68.301,44.593,69.158,44.411,70.153z   M29.34,49.413c-0.084-0.055-0.41,0.064-0.424,0.142c-0.057,0.295-0.473,1.208-0.764,1.68c-0.357,0.578-0.041,1.479,0.499,1.723  c0.656,0.299,1.603-0.17,1.821-0.901C30.766,51.077,30.342,50.058,29.34,49.413z M39.249,78.24c-0.446-0.088-1.008,0.69-0.863,1.258  c0.076,0.297,0.416,0.528,0.537,0.671c0.756,0.012,1.131-0.371,1.12-0.883C40.032,78.736,39.769,78.343,39.249,78.24z   M84.399,22.697c-0.231-0.522-4.099-3.262-4.464-3.513c-1.594-1.103-3.097-2.333-4.645-3.502c-2.045-1.545-4.22-2.735-6.902-2.692  c-1.164,0.02-2.352,0-3.491-0.211c-2.512-0.463-5.029-0.484-7.564-0.437c-1.356,0.023-2.737,0.028-4.069-0.19  c-3.944-0.65-7.896-1.117-11.903-1.095c-1.453,0.008-2.911-0.149-4.358-0.302c-1.84-0.194-3.67-0.491-5.509-0.688  C29.53,9.856,27.612,10.14,25.836,11c-1.043,0.504-1.988,1.212-2.985,1.814c-2.315,1.397-4.604,2.824-6.586,4.691  c-1.299,1.225-1.456,2.085-0.662,3.599c0.673,1.278,1.576,2.181,3.069,2.433c0.652,0.11,1.271,0.414,1.564,0.514  c0.753,1.195,1.335,2.077,1.876,2.985c0.294,0.494,0.633,1.006,0.753,1.555c0.499,2.269,0.921,4.556,1.433,7.147  c-1.839,0.829-1.587,2.536-1.319,4.196c0.21,1.305,0.557,2.587,0.863,3.969c-0.178,0.396-0.536,0.901-0.629,1.451  c-0.354,2.074,2.195,8.958,2.734,10.49c0.393,1.114,0.591,2.273,1.888,2.762c0.228,0.086,0.445,0.393,0.525,0.643  c0.701,2.213,1.811,4.311,1.967,6.786c-2.071,2.01-1.729,4.114-0.116,6.238c0.235,0.31,0.334,0.726,0.592,1.004  c1.623,1.77,2.423,3.96,3.201,6.157c0.815,2.307,1.793,4.499,3.421,6.383c0.624,0.722,0.998,1.659,1.465,2.509  c0.233,0.424,0.393,0.889,0.642,1.3c0.318,0.529,1.229,0.498,1.436-0.09c0.382-1.093,0.703-2.214,0.948-3.348  c0.721-3.323,2.313-6.275,4.616-8.64c2.091-2.146,3.643-4.507,4.903-7.161c1.671-3.521,3.823-6.692,6.575-9.507  c3.398-3.477,6.446-7.271,8.508-11.724c0.821-1.777,2.123-3.209,3.088-4.875c0.281-0.485,0.768-0.865,1.205-1.244  c0.581-0.502,1.206-0.953,1.81-1.429c2.396-1.888,3.764-4.246,4.183-7.372c0.37-2.765,1.896-5.032,4.643-6.244  c0.697-0.307,1.321-0.814,1.925-1.295C85.033,25.37,85.239,24.589,84.399,22.697z M22.625,23.774  c0.072-1.077,1.051-0.95,1.719-1.224c0.268-0.112,0.563-0.166,0.818-0.3c2.477-1.31,4.464-0.222,6.334,1.315  c0.794,0.652,0.704,1.268-0.261,2.427c-0.646-0.375-1.272-0.822-1.964-1.119c-1.245-0.537-2.52-1.035-3.913-0.474  c-0.176,0.071-0.376,0.089-0.568,0.115C23.374,24.712,22.58,24.45,22.625,23.774z M40.134,34.24c0.334,1.488,0.526,3.008,0.75,4.519  c0.222,1.504,0.364,1.963-1.173,2.105c-0.371,0.035-1.504,0.458-1.6,0.099l-0.523-2.17L37.584,38.8  c-0.102-1.353-0.519-3.006-0.981-4.324c-0.356-1.012-1.912-1.471-3.031-0.884c-0.654,0.343-1.232,1.845-1.901,1.52  c-0.299-0.417-0.743-0.759-0.791-1.15c-0.324-2.672-0.076-4.902,1.479-7.305c0.838-1.295,2.247-2.781,6.924-4.238  c0.251-0.079,0.588-0.125,0.854-0.056c4.079,1.031,6.159,4.053,5.093,8.032c-0.222,0.824-0.714,1.575-1.139,2.482  c-0.525-0.303-0.934-0.541-1.344-0.774c-0.807-0.459-1.551-0.117-2.182,0.319C39.955,32.843,39.966,33.498,40.134,34.24z   M34.093,36.275c-0.152,0.362-0.476,0.571-0.869,0.463c-0.331-0.12-0.286-0.831-0.178-1.345c0.075-0.356,0.437-0.68,0.787-0.533  C34.245,34.903,34.353,35.659,34.093,36.275z M24.997,25.462c2.378-0.733,5.953,1.003,5.556,1.7  c-0.336,0.835-0.647,1.638-0.979,2.433c-0.415,0.99,0.083,4.475,0.26,5.954l-1.938,1.405c-0.273,0.131-0.538,0.258-0.823,0.395  c-0.549-2.156-0.214-4.202-0.892-6.161C25.563,29.396,23.979,25.818,24.997,25.462z M25.823,40.911  c-0.533-0.066-0.819-0.457-0.734-1.057c0.881-0.559,5.252-3.576,5.252-3.576c0.825-0.581,3.071,1.271,3.077,1.775  c-0.069,1.021-0.666,1.451-1.454,1.979c-0.873,0.586-1.841,1.043-2.809,1.461c-0.31,0.134-0.849,0.104-1.108-0.088  C27.351,40.892,26.583,41.004,25.823,40.911z M26.135,47.141c0.063-0.269,0.44-0.463,0.676-0.691  c0.33-0.251,0.977,0.815,0.741,1.128c-0.294,0.234-0.491,0.521-0.667,0.509C26.35,48.046,26.01,47.667,26.135,47.141z M28.31,56.544  c-0.775,0.028-0.978-3.553-1.282-5.321c-0.117-0.67-0.044-1.41,0.579-2.118c1.38-1.569,1.196-2.275-0.501-3.78  c-0.143-0.126-0.859-0.27-0.472-0.549c1.024-0.83,2.122-0.862,3.127-0.185c1.191,0.803,2.384,1.641,3.211,2.881  c1.181,1.771,1.223,4.448-0.283,5.893C31.488,54.518,30.586,56.142,28.31,56.544z M33.38,71.672  c-1.324,0.367-1.756-1.767-1.846-3.102c0.243-1.407,2.984-1.727,3.671-2.043c0.06-0.069,0.235-0.195,0.294-0.359  c0.784-2.176,1.262-2.321,2.911-0.846c0.206,0.184,0.329,0.46,0.487,0.69C38.165,69.011,36.081,70.642,33.38,71.672z M39.961,84.078  c-0.593,1.202-1.999-2.202-2.565-3.464c-0.944-2.1-1.621-4.321-2.407-6.492c-0.065-0.181-0.146-0.379-0.134-0.562  c0.031-0.46-0.053-1.146,0.203-1.329c0.624-0.447,1.089,0.146,1.359,0.634c0.882,1.6,2.408,2.181,4.018,2.575  c1.041,0.255,2.041,0.513,2.993,1.321C42.267,79.215,41.124,81.629,39.961,84.078z M49.592,70.188  c-1.208,1.859-2.651,3.553-4.582,4.767c-0.725,0.457-1.393,0.593-2.184,0.3c-0.723-0.267-1.445-0.568-2.195-0.717  c-1.003-0.199-1.706-0.643-2.334-1.507c-1.06-1.464-1.117-1.378-0.235-2.897c0.722-1.242,1.354-2.535,2.081-3.911  c0.218-0.99-0.893-1.205-1.298-1.85c-0.515-0.826-0.452-1.317,0.258-2.066c0.122-0.129,0.262-0.243,0.402-0.355h0.002  c0.758-0.623,1.739-1.05,2.188-1.226c0.48,0.06,0.949,0.226,1.414,0.557c0.814,0.579,1.583,1.098,1.68,2.205  c0.024,0.276,0.175,0.555,0.314,0.805c0.614,1.102,1.75,1.164,2.584,0.121c0.224-0.281,0.087-1.06,0.496-1.019  C50.836,65.625,51.29,67.572,49.592,70.188z M45.874,63.534c0.065-0.309,0.282-0.3,0.416-0.318c0.396-0.06,0.628,0.331,0.411,0.704  c-0.065,0.112-0.345,0.203-0.403,0.195C46.073,64.082,45.844,63.93,45.874,63.534z M51.257,65.444  c-0.822-0.71-1.729-2.219-1.327-2.693c0.425-0.192,0.811-0.447,1.23-0.538c0.66-0.14,2.329-0.816,2.483-0.302  C52.747,63.237,52.06,64.256,51.257,65.444z M49.777,61.539c-1.056,0.031-2.116-0.116-3.175-0.128  c-1.337-0.017-2.515-0.562-3.476-1.353c-1.031-0.849-1.876-1.94-2.719-2.991c-1.58-1.969-1.536-4.181-0.523-6.321  c0.61-1.292,1.442-2.571,2.46-3.564c2.183-2.128,4.779-3.72,7.83-4.221c1.19-0.195,2.517,0.069,3.718,0.377  c2.114,0.542,3.916,1.668,5.188,3.503c0.154,0.222,0.171,0.538,0.282,0.919c0.245,0.838-1.152,2.539-1.649,2.239  c-0.422-0.374-1.854-1.969-2.288-2.356c-2.054-1.824-4.437-2.201-7.041-1.601c-0.946,0.218-1.919,0.361-2.832,0.675  c-2.665,0.917-3.914,3.28-3.182,5.995c0.534,1.973,1.1,3.951,2.862,5.257c0.381,0.281,0.799,0.595,1.243,0.692  c2.532,0.558,5.032,1.527,8.095,0.477C53.323,61.43,51.533,61.487,49.777,61.539z M63.711,30.96c2.582,1.89,3.381,4.077,2.244,7.03  c-0.277,0.719-0.604,1.433-1.014,2.083c-1.761,2.805-4.253,3.832-7.417,3.049c-0.432-0.107-0.863-0.428-1.173-0.763  c-0.043-0.046-0.073-0.106-0.114-0.156c-0.437-1.931-1.43-2.633-1.471-2.662c-0.146-0.127-0.313-0.24-0.5-0.339  c-0.768-0.406-1.552-0.783-2.488-1.255c-0.713-2.339-0.194-4.466,1.523-6.297c1.184-1.262,2.335-2.55,4.188-2.951  c1.33-0.287,3.177-0.109,4.176,0.599C62.62,29.975,62.867,30.343,63.711,30.96z M67.039,24.181c0.05-0.017,0.097-0.04,0.146-0.055  c1.163-0.358,2.07-0.087,2.632,1.275c-1.849,1.376-3.998,2.512-4.965,5.058c-0.718-0.625-1.265-1.1-1.886-1.64  C62.544,28.434,65.566,24.992,67.039,24.181z M54.552,40.547l0.693,1.14c0.225,0.436,0.327,0.917-0.184,0.797  c-0.972-0.158-1.929-0.198-2.804-0.484c-1.29-0.421-2.462-0.267-3.635,0.31c-0.854,0.421-1.746,0.7-2.725,0.825  c0.171-3.025,2.868-4.542,4.519-4.389C52.013,38.893,53.211,39.354,54.552,40.547z M53.208,52.054l-0.002-0.002  c-0.152,0.921-0.863,1.253-1.418,1.374c-0.624-0.588-2.599-1.088-3.218-0.633c-0.476-0.233-0.998-0.673-0.962-1.5l-0.002,0.001  c0.406-1.16,0.608-3.079,1.073-4.264c1.283-0.601,2.595-0.143,3.878-0.023C53.433,48.317,52.985,50.822,53.208,52.054z   M67.752,42.859c-1.477,1.483-2.181,3.436-3.145,5.226c-1.804,3.355-3.79,6.585-6.299,9.463c-0.491,0.564-1.128,1.003-1.981,1.745  c-0.579-0.055,0.437-2.442,0-2.454c-0.579-0.166-1.136-0.02-1.403,0.224c-3.059,2.774-6.152,1.35-9.229,0.114  c-0.417-0.167-0.844-0.577-1.036-0.983c-0.576-1.221-1.159-2.464-1.504-3.762c-0.275-1.03-0.126-2.126,0.588-3.059  c0.748-0.976,1.485-1.42,3.176-1.781c0.713,0.762,0.345,1.636,0.204,2.462c-0.096,0.562-0.537,1.475-0.522,1.942l-0.002,0.001  c0,0-0.255,1.068,2.721,1.793v-0.005c0.501,0.188,1.113,0.325,1.632,0.346l-0.001,0.003c2.543,0.418,3.08-1.094,3.179-1.517  c0.008-0.022,0.014-0.046,0.017-0.071c0.002-0.013,0.008-0.04,0.008-0.04l-0.008-0.004c0.025-0.464-0.399-1.398-0.315-1.869  c0.133-0.744,0.267-1.486,0.461-2.573c0.789,0.732,1.366,1.208,1.875,1.749c1.417,1.508,1.404,1.519,3.45,0.589  c1.308,1.484,1.325,1.484,2.524-0.061c-0.174-0.957-1.713-1.073-1.533-2.499c0.113-0.904-0.669-1.92-1.048-2.882  c1.092-0.488,2.093-0.854,3.015-1.369c0.843-0.469,1.599-1.094,2.405-1.66h3.04C68.354,42.333,68.028,42.583,67.752,42.859z   M74.528,36.661c-0.339,2.038-1.902,2.963-3.353,3.671c-0.947,0.463-3.351,0.497-5.286,0.83c-0.809-0.22,0.905-3.229,1.4-3.321  c1.934-0.626,3.724-1.545,5.255-3.448C73.842,33.285,75.004,34.986,74.528,36.661z M73.841,32.296  c-1.245,1.294-2.645,2.449-4.04,3.587c-0.413,0.335-1.045,0.402-1.717,0.643c-0.321-1.05-0.542-1.961-0.881-2.826  c-0.316-0.812-0.826-1.551-1.115-2.37c-0.147-0.417-0.188-1.092,0.049-1.387c1.314-1.628,2.458-3.55,4.957-3.517  c0.908-0.677-0.69-1.998-2.825-3.25c-0.634-0.126-1.028,0.146-1.514,0.402l-0.003-0.004c0,0-2.71,1.345-4.199,4.018  c-0.612,0.508-1.331,0.732-2.305,0.431c-3.54-1.093-5.935,0.89-8.061,3.254c-1.582,1.761-1.991,3.933-1.423,6.417  c-0.512,0.118-0.948,0.237-1.391,0.315c-2.795,0.493-4.007,1.488-4.46,4.204c-0.245,1.474-0.828,2.454-2.058,3.267  c-1.826,1.205-3.003,3.017-3.912,4.966c-1.092,2.346-1.234,4.714,0.471,6.86c0.543,0.683,0.781,1.39,0.83,2.134  c-0.229,1.39-1.613,2.007-1.613,2.007l0.011,0.005c-1.002,0.48-1.966,1.028-2.865,1.716c-1.063,0.81-2.038,1.819-3.445,2.074  c-0.526-1.836-0.979-3.609-1.546-5.345c-0.507-1.549-0.431-2.777,1.042-3.844c1.46-1.06,2.14-2.702,2.672-4.41  c0.537-1.728,0.258-3.258-0.761-4.701c-1.023-1.45-2.264-2.667-3.795-3.576c-0.306-0.181-0.59-0.395-1.132-0.762  c3.484-1.229,5.79-3.216,6.23-6.769c0.822-0.133,0.787,0.491,0.878,0.874c0.25,1.042,0.601,1.601,0.604,2.566  c0.001,0.142,0.019,0.363,0.057,0.599l-0.001,0.001c0.259,2.835,2.357,2.369,2.357,2.369l-0.009-0.011  c0.153-0.018,0.301-0.054,0.434-0.139c0.843-0.546,1.588-0.508,2.471-0.437c0.686,0.056,1.284-0.742,1.113-1.399  c-0.195-0.748-0.544-1.456-0.734-2.205c-0.327-1.286-0.615-2.583-0.851-3.889c-0.063-0.349,0.122-0.743,0.186-1.078  c1.56-0.536,1.392,1.074,2.105,1.545c0.708,0.046,1.113-0.412,1.278-0.969c0.58-1.947,1.243-3.874,1.462-5.915  c0.136-1.253-0.133-2.37-1.078-3.184c-1.104-0.948-2.249-1.886-3.5-2.61c-0.928-0.537-2.079-0.508-3.119-0.118  c-1.718,0.646-3.413,1.348-5.306,2.1c-1.177-0.921-2.515-1.969-4.052-3.171c-0.176-0.536,1.15-0.72,1.667-0.871  c4.455-1.31,8.963-1.7,13.541-0.69c0.378,0.083,0.783,0.286,1.133,0.216c2.038-0.4,3.783,0.517,5.645,1.06  c2.184,0.634,4.452,0.962,6.74,1.124c3.494,0.248,6.98,0.598,10.475,0.86c1.193,0.089,2.327,0.333,3.303,1.021  c1.737,1.226,3.435,2.507,5.229,3.824C76.131,29.193,75.188,30.898,73.841,32.296z M77.988,25.881  c-0.604-0.019-1.292-0.438-1.771-0.865c-3.051-2.72-6.666-3.738-10.671-3.999c-4.265-0.276-8.511-0.846-12.762-1.321  c-0.67-0.076-1.324-0.312-1.979-0.502c-4.712-1.36-9.483-2.053-14.391-1.327c-0.768,0.113-1.551,0.118-2.326,0.185  c-1.945,0.166-3.813,0.543-5.635,1.348c-2.757,1.216-5.724,1.771-8.704,2.16c-1.373,0.18-2.237-0.946-1.72-2.243  c0.205-0.513,0.568-1.031,0.998-1.375c0.907-0.724,1.867-1.402,2.875-1.976c1.263-0.719,2.641-1.238,3.893-1.976  c2.638-1.552,5.492-2.033,8.436-1.548c3.475,0.575,6.969,0.586,10.458,0.65c3.415,0.062,6.775,0.612,10.118,1.119  c2.997,0.454,5.983,0.459,8.977,0.631c1.939,0.112,3.879,0.226,5.814,0.389c1.622,0.137,2.979,0.991,4.145,2.001  c2.29,1.988,4.823,3.595,7.381,5.188c0.631,0.394,1.416,0.717,1.503,1.728C81.437,25.615,79.744,25.937,77.988,25.881z"/></svg>