<svg xmlns="http://www.w3.org/2000/svg" xmlns:xlink="http://www.w3.org/1999/xlink" version="1.1" x="0px" y="0px" viewBox="0 0 100 125" enable-background="new 0 0 100 100" xml:space="preserve"><g><path fill="none" d="M54.904,18.1c0-0.09-0.099-0.191-0.189-0.191l-12.234-0.053h0c-0.099,0-0.19,0.09-0.191,0.19   c0,0.089,0.098,0.189,0.188,0.19l12.236,0.053C54.813,18.289,54.903,18.199,54.904,18.1z"/><path fill="none" d="M55.493,47.961c-1.961-10.563-2.353-21.415-2.428-25.777l-9.017-0.039c-0.107,4.363-0.578,15.21-2.62,25.755   L55.493,47.961z"/><polygon fill="none" points="52.87,8.948 44.513,8.912 44.485,13.95 52.842,13.986  "/><path fill="none" d="M61.408,65.928c-2.26-3.804-3.909-8.787-5.112-14.061l-15.7-0.069c-1.245,5.264-2.934,10.233-5.226,14.017   c-2.499,4.125-5.543,9.162-7.062,13.529c-0.215,0.617-0.41,1.226-0.557,1.811c-0.045,0.179-0.071,0.349-0.109,0.524   c-0.053,0.246-0.115,0.496-0.153,0.735c-0.265,1.635-0.178,3.086,0.413,4.24c0.155,0.302,0.346,0.589,0.573,0.861   c1.594,1.905,4.977,3.08,10.081,3.497l19.448,0.086c5.838-0.427,9.435-1.861,10.692-4.266   C71.098,82.238,65.497,72.811,61.408,65.928z"/><path fill="none" d="M59.873,49.53c0.533,2.592,1.131,4.926,1.782,7.022c8.405-9.707,12.529-17.896,10.572-21.253   c-0.649-1.112-1.588-1.772-2.871-2.02c-2.619-0.503-6.673,0.805-11.468,3.657c0.401,3.877,0.976,8.047,1.795,12.081   C59.766,49.176,59.835,49.346,59.873,49.53z"/><path d="M64.763,63.935c-0.557-0.937-1.085-2.014-1.59-3.2c6.804-7.572,16.552-20.326,12.424-27.403   c-1.215-2.082-3.118-3.425-5.503-3.885c-3.311-0.637-7.544,0.452-12.594,3.211c-0.396-5.054-0.508-9.174-0.538-11.146   c1.104-0.729,1.838-1.977,1.844-3.396c0.005-1.091-0.417-2.12-1.187-2.897c-0.263-0.265-0.563-0.473-0.877-0.654l0.042-7.549   c0.003-0.518-0.2-1.016-0.564-1.384c-0.364-0.368-0.86-0.576-1.378-0.578L42.581,5.001c-1.096-0.034-1.953,0.864-1.96,1.94   l-0.042,7.504c-1.291,0.685-2.185,2.024-2.192,3.584c-0.005,1.091,0.417,2.12,1.187,2.897c0.18,0.182,0.377,0.341,0.583,0.483   c-0.086,3.865-0.547,16.257-2.93,27.538c-0.078,0.151-0.143,0.31-0.181,0.483c-1.344,6.255-3.031,11.087-5.016,14.363   c-6.209,10.248-10.712,18.569-7.605,24.639c1.204,2.352,3.43,4.061,6.742,5.157c0.662,0.219,1.368,0.414,2.118,0.584   c0.75,0.17,1.543,0.317,2.381,0.439c0.838,0.122,1.721,0.22,2.648,0.295c0.049,0.005,0.098,0.007,0.147,0.007L58.061,95   c0.003,0,0.005,0,0.009,0c0,0,0,0,0,0c0.046,0,0.092-0.002,0.139-0.005c7.425-0.531,11.986-2.609,13.945-6.355   c0.987-1.889,1.234-4.003,0.919-6.333C72.379,77.182,68.97,71.017,64.763,63.935z M42.29,18.046c0-0.099,0.091-0.19,0.191-0.19h0   l12.234,0.053c0.09,0,0.189,0.101,0.189,0.191c0,0.099-0.091,0.189-0.19,0.189l-12.236-0.053   C42.388,18.235,42.289,18.135,42.29,18.046z M53.065,22.185c0.076,4.362,0.467,15.214,2.428,25.777L41.428,47.9   c2.042-10.545,2.513-21.392,2.62-25.755L53.065,22.185z M69.356,33.28c1.283,0.248,2.222,0.908,2.871,2.02   c1.958,3.357-2.167,11.546-10.572,21.253c-0.652-2.096-1.249-4.43-1.782-7.022c-0.038-0.184-0.106-0.353-0.19-0.513   c-0.818-4.034-1.393-8.204-1.795-12.081C62.683,34.085,66.736,32.776,69.356,33.28z M44.513,8.912l8.357,0.037l-0.028,5.038   l-8.357-0.036L44.513,8.912z M68.695,86.832c-1.257,2.404-4.855,3.839-10.692,4.266l-19.448-0.086   c-5.105-0.417-8.487-1.592-10.081-3.497c-0.228-0.272-0.419-0.559-0.573-0.861c-0.59-1.154-0.678-2.605-0.413-4.24   c0.039-0.239,0.1-0.489,0.153-0.735c0.038-0.175,0.064-0.345,0.109-0.524c0.147-0.586,0.342-1.194,0.557-1.811   c1.519-4.367,4.563-9.404,7.062-13.529c2.293-3.784,3.982-8.753,5.226-14.017l15.7,0.069c1.204,5.275,2.852,10.258,5.112,14.061   C65.497,72.811,71.098,82.238,68.695,86.832z"/></g><text x="0" y="115" fill="#000000" font-size="5px" font-weight="bold" font-family="'Helvetica Neue', Helvetica, Arial-Unicode, Arial, Sans-serif">Created by Vladimir Belochkin</text><text x="0" y="120" fill="#000000" font-size="5px" font-weight="bold" font-family="'Helvetica Neue', Helvetica, Arial-Unicode, Arial, Sans-serif">from the Noun Project</text></svg>