<svg xmlns="http://www.w3.org/2000/svg" xmlns:xlink="http://www.w3.org/1999/xlink" version="1.1" x="0px" y="0px" viewBox="0 0 100 125" enable-background="new 0 0 100 100" xml:space="preserve"><path fill="none" stroke="#000000" stroke-width="2" stroke-miterlimit="10" d="M36.077,53.977c-7.729,0-14.979,5.022-14.979,11.022  c0,4.326,9.917,4.645,14.979,4.645c5.063,0,14.979-0.318,14.979-4.645C51.056,58.999,43.806,53.977,36.077,53.977z"/><rect x="17.848" y="68.977" fill="none" stroke="#000000" stroke-width="1.3333" stroke-linecap="round" stroke-linejoin="round" stroke-miterlimit="10" width="1.444" height="1.333"/><rect x="40.209" y="77.166" fill="none" stroke="#000000" stroke-width="1.3333" stroke-linecap="round" stroke-linejoin="round" stroke-miterlimit="10" width="1.444" height="1.333"/><rect x="45.876" y="72.666" fill="none" stroke="#000000" stroke-width="1.3333" stroke-linecap="round" stroke-linejoin="round" stroke-miterlimit="10" width="1.444" height="1.333"/><rect x="58.237" y="75.082" fill="none" stroke="#000000" stroke-width="1.3333" stroke-linecap="round" stroke-linejoin="round" stroke-miterlimit="10" width="1.444" height="1.333"/><rect x="68.931" y="68.977" fill="none" stroke="#000000" stroke-width="1.3333" stroke-linecap="round" stroke-linejoin="round" stroke-miterlimit="10" width="1.444" height="1.333"/><rect x="65.32" y="31.666" fill="none" stroke="#000000" stroke-width="1.3333" stroke-linecap="round" stroke-linejoin="round" stroke-miterlimit="10" width="1.444" height="1.333"/><rect x="60.964" y="28.999" fill="none" stroke="#000000" stroke-width="1.3333" stroke-linecap="round" stroke-linejoin="round" stroke-miterlimit="10" width="1.444" height="1.333"/><rect x="29.626" y="58.916" fill="none" stroke="#000000" stroke-width="1.3333" stroke-linecap="round" stroke-linejoin="round" stroke-miterlimit="10" width="1.444" height="1.333"/><rect x="26.626" y="63.916" fill="none" stroke="#000000" stroke-width="1.3333" stroke-linecap="round" stroke-linejoin="round" stroke-miterlimit="10" width="1.444" height="1.333"/><path fill="none" stroke="#000000" stroke-width="2" stroke-linecap="round" stroke-linejoin="round" stroke-miterlimit="10" d="  M36.26,53.977c0.148-3.232,0.298-8.827-0.26-11.669c-0.812-4.142-2.924-7.808,4.132-7.142c7.056,0.667,4.889,1.167,16.556,1.167  h-1.32c11.667,0,9.5-0.5,16.556-1.167c7.056-0.667,4.944,3,4.132,7.142s-0.124,14.13-0.124,14.13s4.667,8.659,1.167,8.826  c-3.5,0.167-19.946-1.977-22.667-1.977s-3.455,0.63-3.455,0.63"/><line fill="none" stroke="#000000" stroke-width="2" stroke-linecap="round" stroke-linejoin="round" stroke-miterlimit="10" x1="75.931" y1="56.438" x2="73.264" y2="55.124"/><path fill="none" stroke="#000000" stroke-width="2" stroke-linecap="round" stroke-linejoin="round" stroke-miterlimit="10" d="  M73.056,34.56c0,0,0.438-2.359-1.25-4.046c-1.688-1.688-10.917-12.125-15.958-12.125l0,0c-5.042,0-14.271,10.438-15.958,12.125  c-1.688,1.688-1.25,4.046-1.25,4.046"/><text x="0" y="115" fill="#000000" font-size="5px" font-weight="bold" font-family="'Helvetica Neue', Helvetica, Arial-Unicode, Arial, Sans-serif">Created by Nook Fulloption</text><text x="0" y="120" fill="#000000" font-size="5px" font-weight="bold" font-family="'Helvetica Neue', Helvetica, Arial-Unicode, Arial, Sans-serif">from the Noun Project</text></svg>