<svg xmlns="http://www.w3.org/2000/svg" viewBox="0 0 64 80" x="0px" y="0px"><title>water-game-football-sports-team-soccer-equipment-sport team-sports and competition</title><g data-name="Layer 24"><path d="M47.707,39.707A1,1,0,0,0,48,39V27A16.023,16.023,0,0,0,38,12.182V9h1a1,1,0,0,0,1-1V2a1,1,0,0,0-1-1H25a1,1,0,0,0-1,1V8a1,1,0,0,0,1,1h1v3.182A16.023,16.023,0,0,0,16,27V39a1,1,0,0,0,.293.707L18,41.414v1.172l-1.707,1.707A1,1,0,0,0,16,45v5a1,1,0,0,0,.293.707L18,52.414v1.172l-1.707,1.707A1,1,0,0,0,16,56v2a5.006,5.006,0,0,0,5,5H43a5.006,5.006,0,0,0,5-5V56a1,1,0,0,0-.293-.707L46,53.586V52.414l1.707-1.707A1,1,0,0,0,48,50V45a1,1,0,0,0-.293-.707L46,42.586V41.414ZM26,3H38V7H26Zm1.334,10.814A1,1,0,0,0,28,12.872V9h8v3.872a1,1,0,0,0,.666.942A14.02,14.02,0,0,1,46,27v6.92a3.02,3.02,0,0,1-1.464-.8l-1.658-1.656A4.968,4.968,0,0,0,39.343,30h-.686a4.968,4.968,0,0,0-3.535,1.465l-1.658,1.656A3.017,3.017,0,0,1,31.343,34h-.686a3.017,3.017,0,0,1-2.121-.879l-1.658-1.656A4.968,4.968,0,0,0,23.343,30h-.686a4.968,4.968,0,0,0-3.535,1.465L18,32.586V27A14.02,14.02,0,0,1,27.334,13.814ZM46,58a3,3,0,0,1-3,3H21a3,3,0,0,1-3-3V56.414l1.707-1.707A1,1,0,0,0,20,54H44a1,1,0,0,0,.293.707L46,56.414Zm0-8.414-1.707,1.707A1,1,0,0,0,44,52H20a1,1,0,0,0-.293-.707L18,49.586V45.414l1.707-1.707A1,1,0,0,0,20,43H44a1,1,0,0,0,.293.707L46,45.414Zm-1.707-9.293A1,1,0,0,0,44,41H20a1,1,0,0,0-.293-.707L18,38.586V35.414l2.536-2.535A3.017,3.017,0,0,1,22.657,32h.686a3.017,3.017,0,0,1,2.121.879l1.658,1.656A4.968,4.968,0,0,0,30.657,36h.686a4.968,4.968,0,0,0,3.535-1.465l1.658-1.656A3.017,3.017,0,0,1,38.657,32h.686a3.017,3.017,0,0,1,2.121.879l1.658,1.656A4.944,4.944,0,0,0,46,35.936v2.65Z"/><path d="M42,27h2A11.013,11.013,0,0,0,33,16v2A9.01,9.01,0,0,1,42,27Z"/></g></svg>