<svg xmlns="http://www.w3.org/2000/svg" xmlns:xlink="http://www.w3.org/1999/xlink" version="1.1" x="0px" y="0px" viewBox="0 0 90 112.5" enable-background="new 0 0 90 90" xml:space="preserve"><path d="M47.678,24.176l-0.515,0.271L20.061,38.766c2.664,5.042,12.042,7.83,19.67,3.804c5.636-2.979,8.872-8.566,9.001-13.52  c5.348-2.605,25.13-12.255,30.636-15.16c6.383-3.376,4.546-8.853,4.546-8.853L47.678,24.176z"/><circle cx="13.25" cy="42.68" r="2.47"/><path d="M22.605,50.371c0,1.361-1.107,2.469-2.47,2.469c-1.364,0-2.469-1.107-2.469-2.469c0-1.367,1.105-2.471,2.469-2.471  C21.499,47.9,22.605,49.004,22.605,50.371z"/><circle cx="17.666" cy="33.586" r="2.47"/><circle cx="11.527" cy="56.457" r="2.47"/><path d="M21.405,62.785c0,1.365-1.107,2.471-2.47,2.471c-1.364,0-2.47-1.105-2.47-2.471c0-1.361,1.106-2.467,2.47-2.467  C20.298,60.318,21.405,61.424,21.405,62.785z"/><path d="M10.779,68.139c0,1.367-1.106,2.475-2.469,2.475c-1.364,0-2.47-1.107-2.47-2.475c0-1.361,1.106-2.467,2.47-2.467  C9.673,65.672,10.779,66.777,10.779,68.139z"/><circle cx="9.711" cy="82.492" r="2.47"/><circle cx="16.467" cy="73.936" r="2.469"/><path d="M28.179,70.609c0,1.365-1.106,2.473-2.469,2.473c-1.364,0-2.469-1.107-2.469-2.473c0-1.361,1.105-2.467,2.469-2.467  C27.073,68.143,28.179,69.248,28.179,70.609z"/><path d="M25.075,80.674c0,1.367-1.105,2.475-2.469,2.475c-1.363,0-2.47-1.107-2.47-2.475c0-1.361,1.106-2.465,2.47-2.465  C23.969,78.209,25.075,79.313,25.075,80.674z"/></svg>